<svg xmlns="http://www.w3.org/2000/svg" width="235.24" height="35" viewBox="0 0 235.24 35"><rect class="svg__rect" x="0" y="0" width="127.25" height="35" fill="#31C4F3"/><rect class="svg__rect" x="125.25" y="0" width="109.99000000000001" height="35" fill="#389AD5"/><path class="svg__text" d="M15.70 22L14.22 22L14.22 13.47L17.48 13.47Q18.91 13.47 19.75 14.21Q20.59 14.96 20.59 16.18L20.59 16.18Q20.59 17.44 19.77 18.13Q18.95 18.83 17.46 18.83L17.46 18.83L15.70 18.83L15.70 22ZM15.70 14.66L15.70 17.64L17.48 17.64Q18.27 17.64 18.69 17.27Q19.10 16.90 19.10 16.19L19.10 16.19Q19.10 15.50 18.68 15.09Q18.26 14.68 17.52 14.66L17.52 14.66L15.70 14.66ZM24.61 18.00L24.61 18.00L24.61 17.52Q24.61 16.28 25.05 15.32Q25.49 14.37 26.30 13.86Q27.10 13.35 28.14 13.35Q29.19 13.35 29.99 13.85Q30.80 14.35 31.24 15.29Q31.68 16.23 31.68 17.48L31.68 17.48L31.68 17.96Q31.68 19.21 31.25 20.16Q30.82 21.10 30.01 21.61Q29.21 22.12 28.16 22.12L28.16 22.12Q27.12 22.12 26.31 21.61Q25.50 21.10 25.05 20.17Q24.61 19.23 24.61 18.00ZM26.09 17.46L26.09 17.96Q26.09 19.36 26.64 20.13Q27.18 20.90 28.16 20.90L28.16 20.90Q29.14 20.90 29.67 20.15Q30.20 19.40 30.20 17.96L30.20 17.96L30.20 17.51Q30.20 16.09 29.67 15.34Q29.13 14.58 28.14 14.58L28.14 14.58Q27.18 14.58 26.64 15.33Q26.10 16.09 26.09 17.46L26.09 17.46ZM37.53 22L35.56 13.47L37.03 13.47L38.36 19.88L39.99 13.47L41.23 13.47L42.84 19.89L44.15 13.47L45.62 13.47L43.65 22L42.24 22L40.61 15.77L38.96 22L37.53 22ZM55.27 22L49.70 22L49.70 13.47L55.23 13.47L55.23 14.66L51.18 14.66L51.18 17.02L54.68 17.02L54.68 18.19L51.18 18.19L51.18 20.82L55.27 20.82L55.27 22ZM60.95 22L59.47 22L59.47 13.47L62.47 13.47Q63.95 13.47 64.75 14.13Q65.55 14.79 65.55 16.05L65.55 16.05Q65.55 16.90 65.14 17.48Q64.72 18.06 63.99 18.37L63.99 18.37L65.90 21.92L65.90 22L64.31 22L62.60 18.71L60.95 18.71L60.95 22ZM60.95 14.66L60.95 17.52L62.48 17.52Q63.23 17.52 63.65 17.15Q64.07 16.77 64.07 16.11L64.07 16.11Q64.07 15.43 63.68 15.05Q63.29 14.68 62.52 14.66L62.52 14.66L60.95 14.66ZM75.52 22L69.95 22L69.95 13.47L75.48 13.47L75.48 14.66L71.43 14.66L71.43 17.02L74.93 17.02L74.93 18.19L71.43 18.19L71.43 20.82L75.52 20.82L75.52 22ZM82.17 22L79.72 22L79.72 13.47L82.24 13.47Q83.37 13.47 84.25 13.97Q85.12 14.48 85.60 15.40Q86.08 16.33 86.08 17.52L86.08 17.52L86.08 17.95Q86.08 19.16 85.60 20.08Q85.12 21.00 84.22 21.50Q83.33 22 82.17 22L82.17 22ZM81.20 14.66L81.20 20.82L82.17 20.82Q83.33 20.82 83.96 20.09Q84.58 19.36 84.59 17.99L84.59 17.99L84.59 17.52Q84.59 16.13 83.99 15.40Q83.39 14.66 82.24 14.66L82.24 14.66L81.20 14.66ZM99.64 22L96.52 22L96.52 13.47L99.45 13.47Q100.89 13.47 101.65 14.05Q102.41 14.63 102.41 15.78L102.41 15.78Q102.41 16.36 102.09 16.83Q101.77 17.30 101.16 17.56L101.16 17.56Q101.86 17.75 102.23 18.26Q102.61 18.78 102.61 19.51L102.61 19.51Q102.61 20.71 101.84 21.36Q101.07 22 99.64 22L99.64 22ZM98.01 18.15L98.01 20.82L99.65 20.82Q100.35 20.82 100.74 20.47Q101.14 20.13 101.14 19.51L101.14 19.51Q101.14 18.18 99.78 18.15L99.78 18.15L98.01 18.15ZM98.01 14.66L98.01 17.06L99.46 17.06Q100.15 17.06 100.54 16.75Q100.93 16.43 100.93 15.86L100.93 15.86Q100.93 15.23 100.57 14.95Q100.21 14.66 99.45 14.66L99.45 14.66L98.01 14.66ZM109.12 18.86L106.26 13.47L107.90 13.47L109.87 17.51L111.83 13.47L113.47 13.47L110.61 18.86L110.61 22L109.12 22L109.12 18.86Z" fill="#FFFFFF"/><path class="svg__text" d="M141.82 22L139.44 22L139.44 13.60L143.28 13.60Q144.42 13.60 145.26 13.98Q146.10 14.35 146.56 15.06Q147.01 15.76 147.01 16.71L147.01 16.71Q147.01 17.62 146.59 18.30Q146.16 18.98 145.37 19.36L145.37 19.36L147.18 22L144.64 22L143.11 19.77L141.82 19.77L141.82 22ZM141.82 15.47L141.82 17.93L143.14 17.93Q143.87 17.93 144.24 17.61Q144.61 17.29 144.61 16.71L144.61 16.71Q144.61 16.12 144.24 15.79Q143.87 15.47 143.14 15.47L143.14 15.47L141.82 15.47ZM158.55 22L151.80 22L151.80 13.60L158.39 13.60L158.39 15.44L154.16 15.44L154.16 16.85L157.89 16.85L157.89 18.63L154.16 18.63L154.16 20.17L158.55 20.17L158.55 22ZM164.77 22L162.34 22L166.05 13.60L168.39 13.60L172.11 22L169.64 22L168.98 20.37L165.43 20.37L164.77 22ZM167.21 15.93L166.12 18.61L168.28 18.61L167.21 15.93ZM175.84 17.80L175.84 17.80Q175.84 16.54 176.43 15.54Q177.03 14.55 178.08 13.99Q179.14 13.43 180.45 13.43L180.45 13.43Q181.61 13.43 182.53 13.84Q183.45 14.25 184.07 15.02L184.07 15.02L182.56 16.39Q181.74 15.40 180.58 15.40L180.58 15.40Q179.89 15.40 179.36 15.70Q178.82 16 178.53 16.54Q178.23 17.09 178.23 17.80L178.23 17.80Q178.23 18.51 178.53 19.05Q178.82 19.60 179.36 19.90Q179.89 20.20 180.58 20.20L180.58 20.20Q181.74 20.20 182.56 19.22L182.56 19.22L184.07 20.58Q183.46 21.35 182.53 21.76Q181.61 22.17 180.45 22.17L180.45 22.17Q179.14 22.17 178.08 21.61Q177.03 21.05 176.43 20.05Q175.84 19.06 175.84 17.80ZM190.40 15.48L187.81 15.48L187.81 13.60L195.34 13.60L195.34 15.48L192.77 15.48L192.77 22L190.40 22L190.40 15.48ZM199.19 20.75L199.19 20.75Q199.19 20.15 199.58 19.78Q199.97 19.41 200.56 19.41L200.56 19.41Q201.16 19.41 201.54 19.78Q201.93 20.15 201.93 20.75L201.93 20.75Q201.93 21.34 201.54 21.72Q201.15 22.11 200.56 22.11L200.56 22.11Q199.98 22.11 199.59 21.72Q199.19 21.34 199.19 20.75ZM205.51 20.93L205.51 20.93L206.80 19.40Q207.47 20.27 208.24 20.27L208.24 20.27Q208.25 20.27 208.26 20.27L208.26 20.27Q208.77 20.27 209.04 19.96Q209.31 19.65 209.31 19.05L209.31 19.05L209.31 15.44L206.41 15.44L206.41 13.60L211.67 13.60L211.67 18.91Q211.67 20.54 210.84 21.36Q210.02 22.17 208.43 22.17L208.43 22.17Q207.50 22.17 206.74 21.85Q205.99 21.53 205.51 20.93ZM216.17 21.24L216.17 21.24L216.95 19.49Q217.51 19.86 218.25 20.09Q219.00 20.32 219.72 20.32L219.72 20.32Q221.08 20.32 221.09 19.64L221.09 19.64Q221.09 19.28 220.70 19.11Q220.31 18.93 219.44 18.74L219.44 18.74Q218.49 18.53 217.86 18.30Q217.22 18.06 216.77 17.55Q216.31 17.03 216.31 16.16L216.31 16.16Q216.31 15.39 216.73 14.77Q217.15 14.15 217.99 13.79Q218.82 13.43 220.03 13.43L220.03 13.43Q220.85 13.43 221.66 13.62Q222.47 13.80 223.08 14.17L223.08 14.17L222.35 15.93Q221.15 15.28 220.02 15.28L220.02 15.28Q219.31 15.28 218.98 15.49Q218.66 15.70 218.66 16.04L218.66 16.04Q218.66 16.37 219.05 16.54Q219.43 16.71 220.28 16.89L220.28 16.89Q221.24 17.10 221.87 17.33Q222.50 17.56 222.96 18.07Q223.43 18.58 223.43 19.46L223.43 19.46Q223.43 20.21 223.01 20.83Q222.59 21.44 221.75 21.80Q220.91 22.17 219.71 22.17L219.71 22.17Q218.69 22.17 217.72 21.92Q216.76 21.67 216.17 21.24Z" fill="#FFFFFF" x="138.25"/></svg>